<svg xmlns="http://www.w3.org/2000/svg" xmlns:xlink="http://www.w3.org/1999/xlink" width="200" height="200" class="icon" p-id="2375" t="1493344175724" version="1.1" viewBox="0 0 1024 1024"><defs><style type="text/css"/></defs><path fill="#b6edff" d="M408.873984 409.984l69.180416 0 0 67.372032-69.180416 0 0-67.372032Z" p-id="2376"/><path fill="#b6edff" d="M270.493696 342.616064 339.682304 342.616064 339.682304 275.244032 270.497792 275.244032 270.497792 207.872 201.310208 207.872 201.310208 275.244032 270.493696 275.244032Z" p-id="2377"/><path fill="#b6edff" d="M339.682304 342.62016l69.187584 0 0 67.367936-69.187584 0 0-67.367936Z" p-id="2378"/><path fill="#b6edff" d="M201.310208 751.064064l69.187584 0 0 67.372032-69.187584 0 0-67.372032Z" p-id="2379"/><path fill="#b6edff" d="M615.130112 342.62016l69.187584 0 0 67.367936-69.187584 0 0-67.367936Z" p-id="2380"/><path fill="#b6edff" d="M753.502208 751.064064l69.187584 0 0 67.372032-69.187584 0 0-67.372032Z" p-id="2381"/><path fill="#b6edff" d="M545.9456 409.984l69.180416 0 0 67.372032-69.180416 0 0-67.372032Z" p-id="2382"/><path fill="#b6edff" d="M684.317696 679.48032 684.317696 612.104192 615.130112 612.104192 615.130112 544.736256 547.233792 544.736256 547.233792 477.364224 545.949696 477.364224 545.9456 477.364224 478.0544 477.364224 478.050304 477.364224 476.766208 477.364224 476.766208 544.736256 408.869888 544.736256 408.869888 612.104192 339.682304 612.104192 339.682304 679.48032 270.497792 679.48032 270.497792 751.064064 339.682304 751.064064 339.682304 679.484416 408.869888 679.484416 408.869888 612.108288 478.050304 612.108288 478.050304 544.736256 545.949696 544.736256 545.949696 612.108288 615.130112 612.108288 615.130112 679.484416 684.317696 679.484416 684.317696 751.064064 753.502208 751.064064 753.502208 679.48032Z" p-id="2383"/><path fill="#b6edff" d="M753.502208 207.872 753.502208 275.244032 684.317696 275.244032 684.317696 342.616064 753.506304 342.616064 753.506304 275.244032 822.689792 275.244032 822.689792 207.872Z" p-id="2384"/></svg>